<svg id="Layer_1" data-name="Layer 1" xmlns="http://www.w3.org/2000/svg" viewBox="0 0 225 225"><defs><style>.cls-1{fill:#555;}</style></defs><path class="cls-1" d="M206.83,69c-7.43,9-14.94,17.85-22.33,26.84q-37.81,45.93-75.6,91.89c-3.28,4-7.91,5.77-12.91,6.65-.62.11-1.24.28-1.87.41H90.61a5.62,5.62,0,0,0-1.07-.36,22.41,22.41,0,0,1-13.17-6.19Q47.93,161,19.54,133.6a23,23,0,0,1-6.09-10.06c-.34-1.09-.63-2.21-.95-3.31v-6.64c.32-1.18.61-2.37,1-3.55A23.44,23.44,0,0,1,51.87,99.6c9,8.31,17.67,16.92,26.49,25.39l14.18,13.63L101,128q35.65-45.28,71.38-90.53c4.4-5.56,10.86-7.61,17.77-7.18,11.66.72,20.07,8.38,22.05,19.83C213.37,57.16,211.4,63.48,206.83,69Z"/></svg>