<svg id="Layer_1" data-name="Layer 1" xmlns="http://www.w3.org/2000/svg" viewBox="0 0 500 250"><defs><style>.cls-1{fill:#f875aa;stroke:#f875aa;stroke-miterlimit:10;}</style></defs><path class="cls-1" d="M495.64,120.9c-2.07-56.6-49.42-105-107.55-104.84-45.7.1-85.72,30.18-101,72.12a77.25,77.25,0,0,0-73.42,1.9c-14.53-42.27-54.63-74.14-101.82-74C52.92,16.2,3.43,66.23,4.3,127.27c1.86,59.07,50,106,106.66,106.66,61.17.68,110.71-52.86,108.48-113,0-.33,0-.68-.06-1a65.26,65.26,0,0,1,61.41-2c-.23,3.08-.31,6.19-.27,9.33,1.84,59.07,50,106,106.64,106.66C448.34,234.61,497.87,181.07,495.64,120.9ZM113.86,204.3c-41.22-.45-76.28-34.64-77.64-77.65-.64-44.44,35.39-80.85,78.32-81,42.33-.1,76.79,35.12,78.3,76.32C194.47,165.82,158.4,204.8,113.86,204.3Zm273.57,0c-41.24-.45-76.3-34.64-77.66-77.65-.64-44.44,35.39-80.85,78.32-81,42.33-.1,76.79,35.12,78.32,76.32C468,165.82,432,204.8,387.43,204.3Z"/></svg>