<svg id="Layer_1" data-name="Layer 1" xmlns="http://www.w3.org/2000/svg" viewBox="0 0 230 230"><defs><style>.cls-1{fill:#2e9fd9;}</style></defs><path class="cls-1" d="M226.93,34.24c-.42,4.79-2,10.41-3.17,16.1q-12,56.91-24.09,113.82-3.57,16.83-7.2,33.65c-.05.24-.07.48-.13.72-3.08,11.56-11,12.93-19.44,6.87-16.25-11.64-32.25-23.64-48.29-35.57-1.62-1.21-2.47-1.21-4,.24-8.08,8-16.31,15.75-24.46,23.63a12.75,12.75,0,0,1-6.32,3.39c-1.6.33-2.58.19-2.4-2,.62-7.34,1.06-14.68,1.58-22,.61-8.55,1.26-17.09,1.81-25.65a5.27,5.27,0,0,1,1.8-4q45.47-41,90.84-82c1.2-1.09,2.37-2.22,3.5-3.37.56-.58,1.14-1.28.73-2.15a2.22,2.22,0,0,0-2.27-1.09,10.78,10.78,0,0,0-5.63,2Q167.38,64.65,155,72.49q-45.41,28.59-90.79,57.2a4.61,4.61,0,0,1-4.3.54c-15.72-5-31.47-9.85-47.2-14.78a22.71,22.71,0,0,1-6-2.58c-4.14-2.78-4.39-6.56-.58-9.79a20.61,20.61,0,0,1,6-3.63Q44,87.1,75.88,74.78,143.44,48.72,211,22.72l.68-.28C220.7,19.1,227,23.55,226.93,34.24Z"/></svg>