<svg id="Layer_1" data-name="Layer 1" xmlns="http://www.w3.org/2000/svg" viewBox="0 0 225 225"><defs><style>.cls-1{fill:#222;stroke:#222;stroke-miterlimit:10;stroke-width:14px;}</style></defs><path class="cls-1" d="M202.5,38.88v2a3,3,0,0,0-.23.67,17.44,17.44,0,0,1-5.18,10.63c-4.7,4.84-9.53,9.56-14.3,14.33L162.89,86.4q-9.88,9.9-19.8,19.79c-2.05,2-4.17,4-6.46,6.25,1.51,1.44,2.82,2.62,4.07,3.87q9.08,9.07,18.13,18.18T177,152.62q9.28,9.27,18.57,18.55c2.85,2.83,5.33,5.89,6.27,9.92.24,1,.43,2,.64,3.06v2c-.38,1.48-.68,3-1.14,4.42a17.88,17.88,0,0,1-15.77,11.92c-5.18.25-9.48-2.12-13.07-5.65-7.58-7.45-15-15-22.56-22.54l-33-33c-1.47-1.47-3-2.92-4.58-4.49-2.72,2.76-5.29,5.4-7.9,8Q93.78,155.55,83,166.24T61.82,187.46c-3.7,3.68-7.36,7.41-11.22,10.9a15.35,15.35,0,0,1-10.32,4.14A17.29,17.29,0,0,1,26,195.18a16.29,16.29,0,0,1,.39-20.68c2.16-2.61,4.65-4.95,7-7.36q8.24-8.31,16.52-16.57T66.62,134c5.08-5.07,10.13-10.16,15.24-15.21,2.07-2,4.23-4,6.58-6.19-2.93-2.84-5.53-5.31-8.07-7.83Q68.1,92.51,55.87,80.26c-8.81-8.8-17.57-17.64-26.42-26.39-4.61-4.56-7.77-9.66-6.71-16.42a16.49,16.49,0,0,1,8.31-12.29c2.2-1.24,4.78-1.81,7.19-2.68h3.45a2.11,2.11,0,0,0,.51.23,16.18,16.18,0,0,1,8.6,4c2.34,2.18,4.62,4.43,6.9,6.68L74.37,50,91.21,66.82Q98.76,74.38,106.3,82c2,2,4.06,4,6.31,6.23,1.91-2,3.66-3.88,5.48-5.7,5.46-5.49,11-11,16.43-16.44L151,49.49c6.15-6.16,12.26-12.36,18.49-18.44A48.47,48.47,0,0,1,177,24.81c1.9-1.22,4.35-1.58,6.55-2.33h3.17c.32.09.63.2,1,.26,5.4,1,9.71,3.77,12.28,8.66C201.14,33.7,201.66,36.37,202.5,38.88Z"/></svg>